<?xml version="1.0" encoding="utf-8"?>
<!-- Svg Vector Icons : http://www.onlinewebfonts.com/icon -->
<!DOCTYPE svg PUBLIC "-//W3C//DTD SVG 1.1//EN" "http://www.w3.org/Graphics/SVG/1.1/DTD/svg11.dtd">
<svg version="1.1" xmlns="http://www.w3.org/2000/svg" xmlns:xlink="http://www.w3.org/1999/xlink" x="0px" y="0px" viewBox="0 0 1000 1000" enable-background="new 0 0 1000 1000" xml:space="preserve">
<metadata> Svg Vector Icons : http://www.onlinewebfonts.com/icon </metadata>
<g><path d="M116.8,306.7c0,28.6,9.3,54.9,25.1,76.2c-2.5-10.8-3.8-22-3.8-33.5c0-82.6,66.9-149.5,149.5-149.5c11.5,0,22.7,1.3,33.5,3.8c-21.3-15.8-47.7-25.1-76.2-25.1C174.2,178.5,116.8,235.9,116.8,306.7z M746.6,77.8c-95.4,0-194.3,59.5-246.8,182.4C445.5,133.7,347.8,74,254,74c0,0,0,0,0,0l0,42.6c141.8,0,245.9,220.9,245.9,220.9s103.5-217.1,246.7-217.1c52.4,0,101.1,21.8,137,61.3c41.8,46,63.8,112.6,63.8,192.8c0,272.6-363.4,464.1-446.9,504.5C416.7,838.7,52.6,647.9,52.6,376.6c0-81.2,22.2-149.1,64.2-196.6c36.2-40.9,85-63.4,137.1-63.4V74C128.6,74,10,180.5,10,376.6C10,713.1,500.5,926,500.5,926S990,713.1,990,374.5C990,179.7,871.4,77.8,746.6,77.8z"/></g>
</svg>